# vtk DataFile Version 3.0
SPH Performance Data
ASCII
DATASET UNSTRUCTURED_GRID
POINTS 14 float
100 84.9504 13.5954
200 101.7 13.562
300 98.6101 13.8362
400 93.6686 13.869
500 92.444 13.9519
600 90.4586 14.0123
700 88.8036 14.0657
800 87.5128 14.0994
900 86.7399 14.1012
1000 87.4842 14.1062
1100 86.8133 14.0993
1200 85.7948 14.0917
1300 84.3052 14.0496
1400 84.6159 14.0593
POINT_DATA 14
SCALARS Speedup float 1
LOOKUP_TABLE default
6.24847
7.49887
7.12697
6.75381
6.62593
6.45566
6.31348
6.20685
6.15125
6.20183
6.15729
6.08831
6.00053
6.0185
