# vtk DataFile Version 3.0
SPH Performance Data
ASCII
DATASET UNSTRUCTURED_GRID
POINTS 22 float
100 84.9504 13.5954
200 101.7 13.562
300 98.6101 13.8362
400 93.6686 13.869
500 92.444 13.9519
600 90.4586 14.0123
700 88.8036 14.0657
800 87.5128 14.0994
900 86.7399 14.1012
1000 87.4842 14.1062
1100 86.8133 14.0993
1200 85.7948 14.0917
1300 84.3052 14.0496
1400 84.6159 14.0593
1500 86.0317 14.0634
1600 85.0986 14.0427
1700 85.2673 14.0543
1800 85.2625 14.0705
1900 84.982 14.0837
2000 84.6455 14.0947
2100 84.372 14.0866
2200 84.1234 14.1012
POINT_DATA 22
SCALARS Speedup float 1
LOOKUP_TABLE default
6.24847
7.49887
7.12697
6.75381
6.62593
6.45566
6.31348
6.20685
6.15125
6.20183
6.15729
6.08831
6.00053
6.0185
6.11744
6.05999
6.067
6.05965
6.03408
6.0055
5.9895
5.96571
