# vtk DataFile Version 3.0
SPH Performance Data
ASCII
DATASET UNSTRUCTURED_GRID
POINTS 29 float
100 22.5452 10.8054
200 29.1299 10.8997
300 30.9243 10.971
400 30.9459 10.9873
500 30.4816 10.948
600 30.257 10.9605
700 29.8607 10.9438
800 29.6232 10.9657
900 29.7732 10.9945
1000 31.8094 11.0012
1100 31.4938 11.0055
1200 31.4303 11.0467
1300 31.0944 11.0312
1400 30.7423 11.0268
1500 30.7335 11.0199
1600 30.5724 11.0329
1700 30.44 11.0231
1800 30.128 11.0205
1900 30.0388 11.0408
2000 29.9427 11.0617
2100 29.8569 11.0818
2200 29.6908 11.0695
2300 29.6459 11.0589
2400 29.6604 11.0666
2500 29.6232 11.0836
2600 29.6741 11.0977
2700 29.5866 11.1094
2800 29.4188 11.1058
2900 29.334 11.0974
POINT_DATA 29
SCALARS Speedup float 1
LOOKUP_TABLE default
2.08647
2.67255
2.81873
2.81651
2.78422
2.76054
2.72854
2.70144
2.70801
2.89145
2.86163
2.84524
2.81876
2.78796
2.7889
2.77103
2.76148
2.73381
2.72071
2.70689
2.69424
2.68223
2.68074
2.68018
2.6727
2.67389
2.66321
2.64897
2.64333
