# vtk DataFile Version 3.0
SPH Performance Data
ASCII
DATASET UNSTRUCTURED_GRID
POINTS 19 float
100 23.7728 10.4635
200 35.1525 10.3534
300 36.4825 10.2673
400 34.9321 10.3217
500 37.1944 10.3013
600 36.2876 10.3034
700 39.0171 10.2499
800 38.6504 10.2778
900 37.1447 10.2909
1000 37.5108 10.3061
1100 37.3639 10.3157
1200 36.6489 10.331
1300 37.8425 10.3212
1400 38.4907 10.3247
1500 38.8331 10.3448
1600 39.0403 10.3509
1700 39.1392 10.3731
1800 39.3397 10.3809
1900 39.3711 10.3964
POINT_DATA 19
SCALARS Speedup float 1
LOOKUP_TABLE default
2.27198
3.39527
3.55328
3.38434
3.61067
3.52192
3.80659
3.76056
3.60945
3.63967
3.62205
3.54748
3.66647
3.72802
3.75388
3.7717
3.77314
3.78962
3.78698
