# vtk DataFile Version 3.0
SPH Performance Data
ASCII
DATASET UNSTRUCTURED_GRID
POINTS 14 float
100 97.5205 13.7853
200 95.2737 13.678
300 91.2432 13.6822
400 94.2803 13.8221
500 96.4448 13.8658
600 95.8745 13.9154
700 95.6512 13.9438
800 95.5243 13.9691
900 95.7558 13.9868
1000 95.7325 14.0023
1100 95.6279 14.0161
1200 95.3437 14.0265
1300 95.1563 14.0371
1400 95.0476 14.0466
POINT_DATA 14
SCALARS Speedup float 1
LOOKUP_TABLE default
7.07423
6.96545
6.66874
6.821
6.95561
6.88979
6.85975
6.83827
6.84614
6.83691
6.8227
6.79738
6.77893
6.76657
